# xmcd
#
# Track frame offsets:
#	150
#	24776
#	34592
#	52897
#	60076
#	69492
#	91774
#	105434
#	127516
#	159826
#	174161
#	191118
#	213125
#	229706
#
# Disc length: 3211 seconds
#
# Revision: 3
# Processed by: cddbd v1.5.2PL0 Copyright (c) Steve Scherf et al.
# Submitted via: EasyCDDAExtractor 2010.6.0.0
#
DISCID=900c890e
DTITLE=Various Artist - Emozioni In Musica-09-Uomini Un Pò Speciali
DYEAR=1997
DGENRE=Italiani
TTITLE0=Lucio Dalla - Nuvolari 1976
TTITLE1=Mina - Valentino Vale 1965
TTITLE2=Ron - Joe Temerario 1984
TTITLE3=Mario Castelnuovo - Il Grande Blek 1988
TTITLE4=Bruno Lauzi - Garibaldi 1965
TTITLE5=Michele - Il Testamento Di Tito 1971
TTITLE6=Patty Pravo - Ragazzo Triste 1966
TTITLE7=Vasco Rossi - Blasco Rossi 1987
TTITLE8=Roberto Vecchioni - Alighieri 1975
TTITLE9=Francesco De Gregori - Il Signor Hood 1975
TTITLE10=Giorgio Gaber - La Ballata Del Cerutti 1962
TTITLE11=Stadio - Grande Figlio Di Puttana 1982
TTITLE12=Renato Zero - Sbattiamoci 1978
TTITLE13=Paolo Conte - Bartali 1979
EXTD=Various YEAR: 1997
EXTT0=
EXTT1=
EXTT2=
EXTT3=
EXTT4=
EXTT5=
EXTT6=
EXTT7=
EXTT8=
EXTT9=
EXTT10=
EXTT11=
EXTT12=
EXTT13=
PLAYORDER=
